# xmcd
#
# Track frame offsets:
#       150
#       16615
#       34813
#       55085
#       76328
#       91705
#       106023
#       121765
#       140218
#       155215
#
# Disc length: 2190 seconds
#
# Revision: 0
# Processed by: cddbd v1.4PL0 Copyright (c) Steve Scherf et al.
# Submitted via: WhereIsIt 3.26
#
DISCID=71088c0a
DTITLE=Matt Smith - ...Whisper To A Scream
DYEAR=1900
DGENRE=
TTITLE0=House Of Fire
TTITLE1=Love Is All We Need To Get By
TTITLE2=Shelter From The Storm
TTITLE3=Falling In Love Again
TTITLE4=Alibi Motel
TTITLE5=Dancin' On The Blue Ball
TTITLE6=Reason To Be
TTITLE7=Ritmos Y Brisas
TTITLE8=Look But Don't Touch
TTITLE9=Lickety Pick
EXTD=
EXTT0=
EXTT1=
EXTT2=
EXTT3=
EXTT4=
EXTT5=
EXTT6=
EXTT7=
EXTT8=
EXTT9=
PLAYORDER=
